# xmcd
#
# Track frame offsets: 
#        150
#        12567
#        23782
#        33640
#        45770
#        56300
#        67835
#        78022
#        88440
#        99272
#        110650
#        119665
#        131000
#        142280
#        153957
#        164722
#        175740
#        185950
#        196752
#        207372
#        218382
#        230767
#        242080
#        251622
#        262592
#        269820
#        281870
#        290140
#        301890
#
# Disc length: 4151 seconds
#
# Revision: 1
# Processed by: cddbd v1.5.2PL0 Copyright (c) Steve Scherf et al.
# Submitted via: ExactAudioCopyFreeDBPlugin 1.0
#
DISCID=af10351d
DTITLE=Mac Wiseman - 'Tis Sweet To Be Remembered
DYEAR=2003
DGENRE=Bluegrass
TTITLE0=Love Letters In the Sand
TTITLE1=I Haven't Got The Right To Love You
TTITLE2=Keep On the Sunny Side
TTITLE3=Reville In Heaven
TTITLE4=Dreams Of Mother And Home
TTITLE5=The Waltz You Saved For Me
TTITLE6=Paradise Valley
TTITLE7=I Saw Your Face In The Moon
TTITLE8=You Can't Judge A Book By It's Cover
TTITLE9=I Love You Best Of All
TTITLE10=Wabash Cannonball
TTITLE11=Don't Blame It All On Me
TTITLE12=I Didn't Know
TTITLE13=The Little Old Church In The Valley
TTITLE14=When The Roses Bloom Again
TTITLE15=Wabash Cannonball
TTITLE16=Fire Ball Mail
TTITLE17=Darlin' How Could You Forget Me So Soon
TTITLE18=I'm Driftin' Back To Dreamland
TTITLE19=Smilin' Through
TTITLE20=The Ballad Of Davy Crockett
TTITLE21=Danger! Heartbreak Ahead
TTITLE22=The Kentuckian Song
TTITLE23=I Hear You Knocking
TTITLE24=Camptown Races
TTITLE25=Dark As A Dungeon
TTITLE26=I Want To Be Loved
TTITLE27=These Hands
TTITLE28=I'm Eatin' High On The Hog
EXTD=
EXTT0=
EXTT1=
EXTT2=
EXTT3=
EXTT4=
EXTT5=
EXTT6=
EXTT7=
EXTT8=
EXTT9=
EXTT10=
EXTT11=
EXTT12=
EXTT13=
EXTT14=
EXTT15=
EXTT16=
EXTT17=
EXTT18=
EXTT19=
EXTT20=
EXTT21=
EXTT22=
EXTT23=
EXTT24=
EXTT25=
EXTT26=
EXTT27=
EXTT28=
PLAYORDER=
